<?xml version="1.0" standalone="no"?>
<!DOCTYPE svg PUBLIC "-//W3C//DTD SVG 20010904//EN"
 "http://www.w3.org/TR/2001/REC-SVG-20010904/DTD/svg10.dtd">
<svg version="1.0" xmlns="http://www.w3.org/2000/svg"
 width="578.000000pt" height="1280.000000pt" viewBox="0 0 578.000000 1280.000000"
 preserveAspectRatio="xMidYMid meet">

<g transform="translate(0.000000,1280.000000) scale(0.100000,-0.100000)"
fill="#000000" stroke="none">
<path d="M2776 12784 c-125 -30 -235 -112 -301 -225 -65 -112 -65 -108 -65
-679 0 -284 -3 -551 -6 -592 l-7 -75 -27 31 c-39 42 -96 43 -139 1 l-31 -29
-2 -445 -3 -446 -105 3 c-283 9 -451 -47 -603 -202 -99 -100 -150 -215 -160
-358 l-2 -37 -124 80 c-127 81 -159 91 -204 68 -12 -7 -24 -15 -27 -18 -3 -3
-63 -57 -135 -120 -71 -63 -142 -128 -158 -145 -30 -34 -35 -72 -12 -115 17
-33 33 -41 83 -41 33 0 52 13 171 119 l134 119 56 -36 c31 -19 75 -48 99 -65
l43 -29 -98 -101 c-55 -56 -125 -139 -157 -184 l-58 -83 -51 0 c-81 0 -87 -14
-18 -39 78 -28 151 -94 190 -173 17 -34 31 -72 31 -85 0 -36 18 -27 26 13 6
35 1 99 -11 140 -11 35 86 167 219 299 231 229 541 398 902 490 l71 19 6 105
c3 61 14 132 25 166 104 330 421 514 720 420 252 -80 432 -338 432 -619 l0
-82 133 -37 c445 -128 802 -356 1013 -649 47 -66 55 -83 49 -106 -13 -50 -17
-112 -11 -147 8 -39 26 -47 26 -12 0 13 14 51 31 85 39 79 112 145 190 173 69
25 63 39 -17 39 l-52 0 -63 88 c-35 48 -106 131 -158 185 -52 53 -92 99 -90
101 2 2 46 31 98 65 l94 60 70 -62 c196 -175 199 -177 243 -177 45 0 80 25 90
65 14 58 -2 77 -206 256 -154 135 -150 132 -195 126 -29 -3 -77 -28 -172 -91
-73 -47 -137 -86 -142 -86 -5 0 -29 33 -54 73 -111 178 -243 313 -362 372 -92
46 -174 65 -304 73 l-106 7 -5 520 -5 520 -100 1 -100 2 -5 573 c-5 559 -6
575 -27 626 -35 86 -69 137 -126 189 -70 64 -141 102 -224 119 -83 18 -140 18
-217 -1z m-581 -2649 l0 -119 -123 -38 c-218 -67 -389 -143 -567 -251 -107
-66 -110 -64 -109 60 0 74 4 90 37 156 64 130 200 249 327 287 94 27 99 28
275 26 l160 -1 0 -120z m1650 10 c173 -45 309 -163 460 -400 l38 -59 -39 24
c-200 120 -334 181 -559 255 l-160 53 -3 77 -3 78 103 -6 c57 -3 130 -13 163
-22z"/>
<path d="M2301 9453 c-184 -117 -315 -262 -411 -458 -65 -132 -93 -230 -109
-377 -7 -60 -11 -394 -11 -877 l0 -779 63 -55 c80 -70 158 -126 229 -166 32
-18 67 -49 83 -71 38 -55 158 -167 228 -213 81 -54 187 -101 287 -128 111 -30
339 -33 440 -6 190 52 332 134 457 266 45 47 92 97 105 109 13 13 64 50 113
81 50 32 121 84 158 116 l68 58 -4 876 c-3 873 -3 876 -25 954 -87 301 -269
539 -533 693 l-60 36 -73 -79 c-121 -130 -257 -194 -411 -196 -167 -1 -342 84
-446 219 -23 30 -45 54 -49 54 -4 0 -48 -26 -99 -57z m779 -1098 c198 -47 375
-156 498 -309 128 -159 190 -313 213 -526 5 -47 12 -111 15 -143 19 -166 -100
-424 -271 -586 -119 -113 -248 -186 -411 -233 -68 -19 -102 -23 -239 -22 -146
0 -168 3 -250 28 -166 51 -298 131 -416 253 -132 135 -206 274 -243 457 -13
63 -13 80 -1 141 8 39 15 91 15 116 0 65 42 223 83 311 180 391 604 606 1007
513z"/>
<path d="M214 8608 c-95 -95 -180 -189 -190 -208 -13 -24 -19 -57 -19 -105 0
-59 4 -77 28 -118 48 -81 151 -130 239 -113 l33 6 0 192 c0 178 2 197 23 250
12 31 38 77 58 102 l35 46 -18 60 -18 61 -171 -173z"/>
<path d="M5377 8721 l-17 -62 34 -45 c20 -25 46 -71 58 -102 21 -53 23 -72 23
-250 l0 -192 33 -6 c82 -16 188 30 231 99 37 61 47 132 27 201 -17 56 -28 70
-195 239 l-177 179 -17 -61z"/>
<path d="M4355 6094 c-49 -36 -109 -77 -132 -91 -24 -14 -43 -26 -43 -27 0 -4
-28 -196 -85 -591 -30 -209 -82 -569 -115 -800 -65 -452 -73 -492 -126 -602
-81 -169 -218 -293 -389 -351 l-80 -27 -495 0 c-484 0 -497 1 -565 22 -76 24
-164 73 -233 130 -84 69 -173 210 -212 336 -19 62 -27 110 -146 937 -36 250
-74 514 -85 585 -11 72 -28 183 -37 247 l-17 117 -65 42 c-35 22 -84 57 -109
76 -51 38 -73 39 -154 3 -174 -77 -287 -247 -287 -429 0 -42 6 -96 14 -121 8
-25 79 -200 160 -388 l146 -342 0 -1190 0 -1190 30 0 30 0 0 328 0 327 29 60
c33 70 68 105 131 132 44 19 78 19 1272 16 l1227 -3 3 267 3 268 91 215 c50
118 151 359 224 535 73 176 149 361 170 410 251 596 253 604 258 701 5 98 -7
152 -53 244 -29 57 -101 131 -169 175 -86 55 -89 54 -191 -21z"/>
<path d="M3570 5866 c-7 -9 -9 -16 -5 -16 4 0 2 -6 -4 -14 -8 -10 -8 -16 3
-25 10 -9 19 -7 37 8 l24 20 -21 21 c-18 19 -22 19 -34 6z"/>
<path d="M3227 5817 c-24 -77 -24 -78 26 -71 68 9 72 12 53 33 -15 17 -15 18
9 29 36 17 130 15 164 -3 34 -17 81 -71 81 -92 0 -10 6 -13 16 -9 9 3 18 6 20
6 8 0 -27 74 -44 93 -48 54 -162 74 -239 42 -46 -20 -53 -19 -53 5 0 37 -16
21 -33 -33z"/>
<path d="M3331 5801 c-8 -5 12 -8 53 -8 74 1 104 -14 144 -73 27 -41 29 -19 2
25 -11 18 -36 40 -54 49 -36 17 -122 21 -145 7z"/>
<path d="M2289 5773 c-5 -15 -9 -38 -7 -52 3 -24 7 -26 51 -26 26 0 47 -2 47
-6 0 -3 -26 -40 -58 -80 -32 -41 -61 -89 -65 -107 l-6 -32 119 0 119 0 7 34
c7 42 -1 57 -29 55 -39 -3 -57 1 -57 13 0 6 26 43 58 82 39 46 61 84 66 109
l7 37 -121 0 -120 0 -11 -27z"/>
<path d="M3397 5773 c-4 -3 -7 -11 -7 -17 0 -6 5 -5 12 2 6 6 9 14 7 17 -3 3
-9 2 -12 -2z"/>
<path d="M2980 5730 c-8 -5 -33 -6 -55 -3 -28 3 -44 1 -52 -8 -12 -15 -93
-288 -93 -314 0 -18 43 -21 57 -2 6 6 15 26 20 42 9 28 13 30 60 30 69 0 122
36 157 106 30 61 32 79 11 118 -20 40 -69 54 -105 31z m33 -91 c24 -38 -52
-117 -90 -93 -30 18 -27 51 6 85 33 33 66 36 84 8z"/>
<path d="M3277 5733 c-4 -4 -29 -6 -56 -4 -32 1 -50 -2 -54 -11 -105 -271
-119 -310 -109 -320 19 -19 54 3 73 47 18 42 21 43 54 38 45 -7 77 2 114 32
27 23 29 28 19 56 l-10 30 -28 -26 c-20 -19 -36 -26 -56 -23 -39 4 -43 36 -9
77 36 42 70 41 115 -4 l34 -35 13 22 c19 34 16 92 -5 111 -18 17 -82 23 -95
10z"/>
<path d="M2604 5711 c-36 -22 -69 -71 -79 -118 -8 -40 10 -100 34 -113 25 -13
167 -10 184 4 13 10 67 197 67 230 0 12 -10 16 -35 16 -19 0 -35 -5 -35 -10 0
-7 -6 -7 -19 0 -30 16 -83 12 -117 -9z m101 -82 c16 -48 -30 -97 -82 -87 -27
5 -30 61 -4 87 28 28 77 28 86 0z"/>
<path d="M3578 5685 c-36 -18 -94 -52 -127 -74 -81 -56 -84 -56 -105 -21 -10
17 -20 29 -23 27 -6 -7 28 -127 37 -127 4 0 15 9 26 21 27 31 128 109 208 163
82 54 77 58 -16 11z"/>
<path d="M3582 5648 c-7 -7 -13 -26 -13 -42 l-1 -31 -8 30 c-7 28 -8 28 -9 5
-2 -43 -46 -124 -86 -159 -88 -77 -186 -82 -257 -13 -16 14 -28 21 -28 15 0
-14 57 -63 72 -63 6 0 8 -3 5 -6 -4 -4 -24 5 -46 19 -25 16 -42 23 -46 16 -19
-30 73 -79 148 -79 136 0 267 124 292 278 7 42 -1 52 -23 30z m-32 -116 c0 -5
-7 -17 -15 -28 -14 -18 -14 -17 -4 9 12 27 19 34 19 19z m-51 -79 c-17 -20
-99 -73 -113 -73 -6 0 12 13 39 29 28 16 57 36 64 45 7 9 16 16 18 16 3 0 -1
-8 -8 -17z m-151 -80 c-16 -2 -40 -2 -55 0 -16 2 -3 4 27 4 30 0 43 -2 28 -4z"/>
<path d="M3510 5570 c0 -5 5 -10 10 -10 6 0 10 5 10 10 0 6 -4 10 -10 10 -5 0
-10 -4 -10 -10z"/>
<path d="M2646 5432 c-2 -4 4 -8 14 -8 10 0 16 4 14 8 -3 4 -9 8 -14 8 -5 0
-11 -4 -14 -8z"/>
<path d="M2705 5429 c-4 -6 -4 -13 -1 -16 3 -4 6 -1 6 5 0 7 7 12 15 12 21 0
19 -28 -2 -33 -14 -4 -12 -5 5 -6 17 -1 22 4 22 24 0 18 -5 25 -19 25 -11 0
-23 -5 -26 -11z"/>
<path d="M2326 5421 c-3 -5 3 -7 14 -4 21 6 30 -21 10 -30 -6 -3 -5 -4 2 -3
19 4 16 40 -4 44 -9 2 -19 -1 -22 -7z"/>
<path d="M2413 5423 c9 -2 17 -11 17 -20 0 -9 -6 -13 -15 -9 -22 8 -18 -1 5
-14 18 -10 20 -8 20 20 0 25 -4 30 -22 29 -17 -1 -19 -2 -5 -6z"/>
<path d="M2500 5420 c0 -5 7 -7 15 -4 8 4 15 8 15 10 0 2 -7 4 -15 4 -8 0 -15
-4 -15 -10z"/>
<path d="M2648 5398 c5 -5 16 -8 23 -6 8 3 3 7 -10 11 -17 4 -21 3 -13 -5z"/>
<path d="M2270 5390 c0 -6 7 -10 15 -10 8 0 15 2 15 4 0 2 -7 6 -15 10 -8 3
-15 1 -15 -4z"/>
<path d="M2508 5393 c6 -2 18 -2 25 0 6 3 1 5 -13 5 -14 0 -19 -2 -12 -5z"/>
<path d="M1300 2218 c1 -66 20 -147 42 -179 16 -23 17 -19 17 104 l1 127 -30
0 c-30 0 -30 -1 -30 -52z"/>
<path d="M4002 2128 c-7 -7 -12 -22 -12 -34 0 -13 -5 -26 -10 -29 -6 -4 -1
-14 14 -26 22 -17 26 -17 54 -4 51 26 55 38 19 66 -47 37 -53 39 -65 27z"/>
<path d="M3389 2035 c-12 -53 -19 -98 -16 -102 4 -3 53 1 109 8 l103 14 -45
27 -44 27 49 22 c107 48 263 34 367 -32 46 -30 115 -98 135 -133 8 -15 14 -16
32 -7 11 7 21 19 21 27 0 28 -141 158 -200 186 -123 57 -281 62 -380 13 -57
-28 -65 -27 -79 10 -7 19 -16 35 -21 35 -5 0 -18 -43 -31 -95z"/>
<path d="M3600 2028 c-38 -9 -42 -12 -24 -18 11 -4 38 -5 61 -1 62 12 170 -5
231 -36 49 -25 142 -113 142 -134 0 -5 5 -9 10 -9 50 0 -81 138 -167 176 -67
30 -180 40 -253 22z"/>
<path d="M1975 2020 c-104 -3 -191 -7 -192 -8 -9 -11 -34 -107 -31 -124 3 -22
8 -23 87 -26 l84 -3 -135 -137 c-112 -113 -138 -145 -148 -180 -6 -24 -14 -50
-17 -58 -4 -12 26 -14 199 -14 148 0 209 3 220 13 9 6 23 36 33 65 23 71 14
80 -78 84 -47 2 -72 7 -75 16 -2 7 52 70 121 140 108 110 127 134 140 179 15
51 14 65 -7 61 -6 -1 -96 -5 -201 -8z"/>
<path d="M3707 1983 c-11 -10 -8 -43 3 -43 6 0 10 11 10 25 0 26 -2 29 -13 18z"/>
<path d="M2995 1920 c-22 -4 -55 -14 -74 -24 -30 -16 -33 -16 -28 -2 10 25
-118 23 -131 -1 -21 -41 -173 -565 -168 -578 7 -19 85 -20 109 -2 9 6 27 46
40 87 l23 75 35 -3 c114 -9 145 -7 194 18 100 49 174 155 183 261 9 119 -64
187 -183 169z m28 -148 c33 -30 16 -101 -37 -151 -33 -31 -115 -41 -139 -16
-21 20 -22 76 -3 113 38 73 126 100 179 54z"/>
<path d="M3519 1921 c-14 -5 -35 -14 -48 -20 -19 -11 -25 -10 -34 4 -15 19
-102 15 -122 -7 -21 -21 -195 -566 -188 -585 7 -17 94 -17 115 0 9 6 26 45 38
85 12 39 29 76 38 81 9 5 28 3 51 -6 65 -28 193 11 256 77 l26 27 -32 54 c-17
30 -32 55 -34 57 -1 2 -12 -12 -24 -31 -39 -63 -131 -87 -172 -46 -42 42 -5
140 65 173 50 24 83 20 116 -13 16 -16 31 -26 34 -24 3 3 27 -13 53 -37 l48
-42 12 29 c29 69 7 166 -49 206 -29 22 -108 31 -149 18z"/>
<path d="M2330 1903 c-101 -36 -200 -178 -200 -286 0 -123 116 -191 235 -138
57 25 56 25 49 6 -5 -12 4 -15 48 -15 30 0 61 6 70 13 16 12 128 366 128 405
0 20 -5 22 -60 22 -44 0 -62 -4 -66 -15 -5 -12 -12 -11 -42 5 -44 24 -100 24
-162 3z m130 -133 c55 -55 -23 -180 -112 -180 -53 0 -78 22 -78 69 0 96 130
171 190 111z"/>
<path d="M4158 1866 c-94 -41 -237 -126 -341 -200 -42 -31 -81 -56 -85 -56 -4
0 -32 25 -62 55 -29 30 -55 53 -57 51 -2 -2 22 -58 53 -125 l58 -122 95 94
c143 140 218 199 417 324 36 22 -1 12 -78 -21z"/>
<path d="M4117 1779 c-17 -10 -18 -19 -12 -78 23 -229 -125 -426 -347 -463
-116 -19 -251 20 -335 96 l-41 36 -15 -24 c-15 -22 -14 -25 16 -53 82 -76 183
-113 312 -113 146 0 256 48 352 154 83 92 133 238 118 346 -16 118 -16 118
-48 99z"/>
<path d="M4058 1643 c-4 -118 -31 -182 -105 -256 -71 -71 -140 -101 -242 -106
-72 -3 -93 0 -153 24 -45 18 -88 44 -123 77 -62 56 -74 49 -19 -12 45 -49 139
-97 221 -111 88 -16 191 8 272 62 96 64 149 146 171 261 11 54 4 158 -10 158
-5 0 -10 -44 -12 -97z"/>
<path d="M4000 1629 c0 -5 11 -9 25 -9 14 0 25 2 25 4 0 2 -11 6 -25 8 -14 3
-25 1 -25 -3z"/>
<path d="M1272 1333 l3 -238 45 0 45 0 3 238 2 237 -50 0 -50 0 2 -237z"/>
<path d="M4410 1335 l0 -235 25 -6 c14 -3 36 -3 50 0 l25 6 0 235 0 235 -50 0
-50 0 0 -235z"/>
<path d="M1630 1416 c-3 -11 -3 -39 -1 -63 3 -40 5 -43 32 -43 16 0 29 5 29
10 0 6 -11 10 -24 10 -23 0 -25 4 -28 53 -2 28 -5 43 -8 33z"/>
<path d="M2005 1420 c-3 -5 -1 -10 4 -10 6 0 11 5 11 10 0 6 -2 10 -4 10 -3 0
-8 -4 -11 -10z"/>
<path d="M2172 1404 c-7 -8 -8 -14 -2 -14 5 0 10 -15 10 -34 0 -23 6 -36 18
-41 14 -5 15 -4 5 6 -19 19 -16 56 5 68 15 9 15 10 0 11 -9 0 -18 4 -20 9 -1
5 -9 3 -16 -5z"/>
<path d="M1742 1388 c-39 -39 17 -100 58 -63 24 22 25 38 4 59 -18 19 -45 21
-62 4z m56 -24 c4 -29 -23 -51 -43 -34 -18 15 -19 32 -3 48 18 18 42 10 46
-14z"/>
<path d="M1872 1388 c-31 -31 3 -84 47 -73 25 6 25 6 8 -12 -15 -15 -20 -16
-38 -5 -18 11 -20 11 -17 0 6 -18 46 -22 64 -8 8 8 14 31 14 59 0 45 -1 46
-33 48 -18 2 -39 -3 -45 -9z m56 -10 c16 -16 15 -23 -4 -42 -12 -12 -20 -13
-35 -6 -10 6 -19 16 -19 23 0 16 20 37 35 37 6 0 16 -5 23 -12z"/>
<path d="M2003 1360 c0 -25 2 -35 4 -22 2 12 2 32 0 45 -2 12 -4 2 -4 -23z"/>
<path d="M2070 1379 c0 -12 8 -23 20 -26 21 -6 26 -18 11 -28 -5 -3 -12 -1
-16 5 -3 5 -11 10 -18 10 -6 0 -4 -8 6 -17 13 -13 21 -15 34 -7 27 17 27 33
-1 44 -31 11 -36 35 -6 27 11 -3 20 -1 20 4 0 5 -11 9 -25 9 -19 0 -25 -5 -25
-21z"/>
<path d="M2342 1388 c-34 -34 6 -90 49 -68 11 7 18 14 15 17 -3 3 -12 0 -21
-7 -20 -17 -47 5 -43 34 2 15 10 21 30 21 14 -1 24 3 22 7 -8 12 -38 10 -52
-4z"/>
<path d="M2462 1388 c-34 -34 3 -85 53 -72 21 5 25 12 25 43 0 34 -2 36 -33
38 -18 2 -39 -3 -45 -9z m57 -12 c14 -16 5 -42 -16 -50 -17 -7 -43 10 -43 28
0 7 5 17 12 24 16 16 33 15 47 -2z"/>
<path d="M2260 1355 c0 -19 5 -35 10 -35 6 0 10 16 10 35 0 19 -4 35 -10 35
-5 0 -10 -16 -10 -35z"/>
<path d="M3660 1330 c0 -11 5 -20 10 -20 6 0 10 9 10 20 0 11 -4 20 -10 20 -5
0 -10 -9 -10 -20z"/>
<path d="M2240 253 c0 -17 121 -96 215 -143 134 -66 231 -90 385 -97 197 -9
359 26 514 111 82 44 186 116 186 129 0 4 -292 7 -650 7 -357 0 -650 -3 -650
-7z"/>
</g>
</svg>
