<svg xmlns="http://www.w3.org/2000/svg" xmlns:xlink="http://www.w3.org/1999/xlink" viewBox="0 0 313.8 141.85"><defs><style>.cls-1{isolation:isolate;}.cls-2{fill:#ffdaa4;}.cls-3{fill:#7a7a7a;}.cls-4{fill:#c6c6c6;}.cls-5{fill:red;}.cls-6{fill:#2d2d2d;}.cls-7{fill:#595959;}.cls-8{opacity:0.25;}.cls-17,.cls-23,.cls-8{mix-blend-mode:multiply;}.cls-9{fill:#606060;}.cls-10{fill:#191919;}.cls-11{fill:#3a3a3a;}.cls-12{fill:#ff2103;}.cls-13{fill:#c43f3f;}.cls-14{fill:#ff4040;}.cls-15{fill:#9b9b9b;}.cls-16{fill:#d1d1d1;}.cls-17{opacity:0.35;}.cls-18{fill:#111;}.cls-19{opacity:0.15;}.cls-20{fill:#fff;}.cls-21{fill:#5757d3;}.cls-22{fill:url(#Degradado_sin_nombre_59);}.cls-23{opacity:0.22;}.cls-24{fill:#efefef;}.cls-25{fill:#b2b2b2;}.cls-26{fill:url(#Degradado_sin_nombre_59-2);}.cls-27{fill:url(#Degradado_sin_nombre_59-3);}.cls-28{fill:#1d1d1b;}</style><linearGradient id="Degradado_sin_nombre_59" x1="185.91" y1="1368.81" x2="313.14" y2="1368.81" gradientTransform="translate(1545.37 -178.6) rotate(90)" gradientUnits="userSpaceOnUse"><stop offset="0" stop-color="#a0e010"/><stop offset="1" stop-color="#acff12"/></linearGradient><linearGradient id="Degradado_sin_nombre_59-2" x1="217.83" y1="1427.97" x2="281.21" y2="1427.97" xlink:href="#Degradado_sin_nombre_59"/><linearGradient id="Degradado_sin_nombre_59-3" x1="212.23" y1="1501.78" x2="286.83" y2="1501.78" gradientTransform="translate(-205.93 -1430.86)" xlink:href="#Degradado_sin_nombre_59"/></defs><g class="cls-1"><g id="Capa_2" data-name="Capa 2"><g id="Capa_1-2" data-name="Capa 1"><path class="cls-2" d="M212.85,25h0a1.28,1.28,0,0,1,1.67-.69l6.11,2.52a1.27,1.27,0,0,1,.69,1.66h0a1.27,1.27,0,0,1-1.66.69l-6.11-2.52A1.28,1.28,0,0,1,212.85,25Z"/><path class="cls-2" d="M212.85,116.8h0a1.3,1.3,0,0,0,1.67.69l6.11-2.52a1.27,1.27,0,0,0,.69-1.66h0a1.28,1.28,0,0,0-1.66-.7l-6.11,2.52A1.29,1.29,0,0,0,212.85,116.8Z"/><rect x="39.1" y="30.79" width="55.5" height="80.28" rx="3.03" transform="translate(137.78 4.07) rotate(90)"/><path class="cls-3" d="M46,39.19h0a7.33,7.33,0,0,1,7.33-7.32h66.32A7.32,7.32,0,0,1,127,39.19h0a7.33,7.33,0,0,1-7.32,7.33H53.33A7.33,7.33,0,0,1,46,39.19Z"/><path class="cls-4" d="M55.79,46.52v-16a1.91,1.91,0,0,1,1.91-1.91h0a1.92,1.92,0,0,1,1.91,1.91v16Z"/><path class="cls-5" d="M241.58,56.46h0a2.57,2.57,0,0,1,2.57-2.57h29.7a2.57,2.57,0,0,1,2.57,2.57h0A2.57,2.57,0,0,1,273.85,59h-29.7A2.57,2.57,0,0,1,241.58,56.46Z"/><rect class="cls-5" x="256.43" y="67.97" width="5.14" height="34.84" rx="1.19" transform="translate(344.39 -173.61) rotate(90)"/><path class="cls-6" d="M243.93,56.46h0a2.57,2.57,0,0,1,2.57-2.57h12.28a2.57,2.57,0,0,1,2.57,2.57h0A2.57,2.57,0,0,1,258.78,59H246.5A2.57,2.57,0,0,1,243.93,56.46Z"/><rect class="cls-6" x="250.07" y="76.68" width="5.14" height="17.42" rx="1.19" transform="translate(338.03 -167.25) rotate(90)"/><path class="cls-7" d="M241.58,70.93h0A11.89,11.89,0,0,1,253.47,59h48.44A11.89,11.89,0,0,1,313.8,70.93h0a11.89,11.89,0,0,1-11.89,11.88H253.47A11.88,11.88,0,0,1,241.58,70.93Z"/><g class="cls-8"><path class="cls-9" d="M215.47,70.93h0A11.89,11.89,0,0,1,227.36,59H275.8a11.89,11.89,0,0,1,11.89,11.89h0A11.88,11.88,0,0,1,275.8,82.81H227.36A11.88,11.88,0,0,1,215.47,70.93Z"/></g><path class="cls-10" d="M270.34,82.82H243.76a11.89,11.89,0,1,1,0-23.78h26.58a11.89,11.89,0,1,1,0,23.78Z"/><path class="cls-6" d="M268.6,81.06H242a11.91,11.91,0,0,1-7.48-2.64A11.9,11.9,0,0,1,243.76,59h26.58a11.82,11.82,0,0,1,7.52,2.68,11.88,11.88,0,0,1-9.26,19.34Z"/><path class="cls-11" d="M234.71,108.48a.76.76,0,0,1,.45-.71c.1,0,10.78-5.21,13-11.55,2-6,1.1-11.26.26-16-.59-3.3-1.09-6.15-.41-8.59,4.35-15.76,4.83-26.65,1.38-31.5-5.86-8.22-12.08-5.64-12.14-5.61a.79.79,0,0,1-1-.4.78.78,0,0,1,.4-1c.08,0,7.45-3.12,14,6.13,3.79,5.32,3.4,16.36-1.16,32.82-.58,2.1-.1,4.8.46,7.91.82,4.63,1.85,10.4-.33,16.72-2.39,7-13.31,12.24-13.77,12.46a.77.77,0,0,1-1-.37A.67.67,0,0,1,234.71,108.48Z"/><path class="cls-5" d="M231.27,18.24a2.31,2.31,0,0,1,.79-1.75,2.33,2.33,0,0,1,3.31.19l6.56,7.39a2.35,2.35,0,0,1,.22,2.83l-4.68,7.26a2.35,2.35,0,1,1-3.95-2.55l3.71-5.76-5.37-6.05A2.3,2.3,0,0,1,231.27,18.24Z"/><path class="cls-5" d="M231.27,123.61a2.34,2.34,0,0,1,.59-1.56l5.38-6.1-3.73-5.83a2.35,2.35,0,0,1,4-2.53l4.68,7.31a2.34,2.34,0,0,1-.21,2.82l-6.56,7.44a2.35,2.35,0,0,1-4.11-1.55Z"/><polygon points="35.47 45.86 29.33 35.05 33.63 32.53 39.76 43.34 35.47 45.86"/><rect class="cls-12" x="29.36" y="28.49" width="4.98" height="10.28" rx="1.16" transform="translate(65.48 1.77) rotate(90)"/><rect x="30.83" y="28.49" width="4.98" height="10.28" rx="1.16" transform="translate(66.95 0.3) rotate(90)"/><polygon points="35.47 95.99 29.33 106.8 33.63 109.32 39.76 98.52 35.47 95.99"/><rect class="cls-12" x="29.36" y="103.09" width="4.98" height="10.28" rx="1.16" transform="translate(-76.37 140.08) rotate(-90)"/><rect x="30.83" y="103.09" width="4.98" height="10.28" rx="1.16" transform="translate(-74.9 141.55) rotate(-90)"/><path class="cls-7" d="M0,70.93H0A24.41,24.41,0,0,1,24.41,46.52H172.34a24.41,24.41,0,0,1,24.41,24.41h0a24.41,24.41,0,0,1-24.41,24.41H24.41A24.41,24.41,0,0,1,0,70.93Z"/><g class="cls-8"><path class="cls-9" d="M11,70.93h0A24.41,24.41,0,0,1,35.37,46.52H183.31a24.41,24.41,0,0,1,24.41,24.41h0a24.41,24.41,0,0,1-24.41,24.41H35.37A24.41,24.41,0,0,1,11,70.93Z"/></g><path class="cls-6" d="M17.25,70.93h0A24.41,24.41,0,0,1,41.66,46.52H182.33a24.41,24.41,0,0,1,24.41,24.41h0a24.41,24.41,0,0,1-24.41,24.41H41.66A24.41,24.41,0,0,1,17.25,70.93Z"/><path class="cls-13" d="M40.34,70.93h0A25.55,25.55,0,0,1,65.89,45.38H95.26a14.13,14.13,0,0,1,14.13,14.13V82.34A14.14,14.14,0,0,1,95.26,96.48H65.89A25.55,25.55,0,0,1,40.34,70.93Z"/><path class="cls-14" d="M52.49,70.93h0A25.55,25.55,0,0,1,78,45.38h26.35a14.14,14.14,0,0,1,14.14,14.13V82.34a14.14,14.14,0,0,1-14.14,14.14H78A25.55,25.55,0,0,1,52.49,70.93Z"/><path class="cls-10" d="M208.44,98.29H127.38A27.36,27.36,0,0,1,100,70.93a25.31,25.31,0,0,1,.15-2.91,27.36,27.36,0,0,1,27.23-24.47h81.06A27.38,27.38,0,0,1,235.66,68a25.29,25.29,0,0,1,.16,2.91,27.38,27.38,0,0,1-27.38,27.36Z"/><path class="cls-6" d="M208.44,92.47H127.38A27.37,27.37,0,0,1,100.15,68a27.36,27.36,0,0,1,27.23-24.47h81.06A27.38,27.38,0,0,1,235.66,68a27.38,27.38,0,0,1-27.22,24.45Z"/><path d="M207.85,120.67a2.35,2.35,0,0,1,2.35-2.35c18,0,32.1-21.27,32.55-47.39.45-25.3-14.27-46.77-32.55-47.4a2.35,2.35,0,1,1,0-4.7c20.54,0,37.25,23.37,37.25,52.1S230.74,123,210.2,123A2.35,2.35,0,0,1,207.85,120.67Z"/><path class="cls-6" d="M199.23,1.68h0a5.75,5.75,0,0,1,8.12,0l16,16a5.75,5.75,0,0,1,0,8.12h0a5.73,5.73,0,0,1-8.12,0l-16-16A5.75,5.75,0,0,1,199.23,1.68Z"/><path class="cls-6" d="M199.23,140.17h0a5.75,5.75,0,0,0,8.12,0l16-16a5.75,5.75,0,0,0,0-8.12h0a5.75,5.75,0,0,0-8.12,0l-16,16A5.75,5.75,0,0,0,199.23,140.17Z"/><ellipse class="cls-15" cx="242.66" cy="70.93" rx="16.26" ry="14.62"/><path class="cls-16" d="M237.63,81c-6.21,0-11.23-4.52-11.23-10.09s5-10.1,11.23-10.1,11.23,4.52,11.23,10.1S243.83,81,237.63,81Z"/><ellipse class="cls-2" cx="215.9" cy="18.28" rx="8.73" ry="8.65"/><ellipse class="cls-2" cx="215.9" cy="123.59" rx="8.73" ry="8.65"/><g class="cls-17"><path class="cls-9" d="M62.71,70.92h0A19.63,19.63,0,0,1,82.34,51.29h54.42a19.63,19.63,0,0,1,19.63,19.63h0a19.63,19.63,0,0,1-19.63,19.63H82.34A19.63,19.63,0,0,1,62.71,70.92Z"/></g><circle class="cls-18" cx="96.91" cy="70.92" r="26.79"/><path class="cls-18" d="M78.71,62.44a13.47,13.47,0,0,1-.46-7.5,13.18,13.18,0,0,1,4.47-7.37,11.36,11.36,0,0,1,2.79-1.69l49.05-21a11,11,0,0,1,7.87-.33A12,12,0,0,1,149.84,32a13.43,13.43,0,0,1,.74,5.69A13,13,0,0,1,143,48.59l-22.3,9.53-3.92,1.69L94,69.58a11.85,11.85,0,0,1-2.71.77A11.62,11.62,0,0,1,78.71,62.44Z"/><path class="cls-6" d="M91.28,70.35a12.05,12.05,0,0,1-7.41-7.46,13.54,13.54,0,0,1,4-14.88,11.48,11.48,0,0,1,2.79-1.69l1.94-.84,47.1-20.14h0a10.79,10.79,0,0,1,2.64-.75h0c.2.06.38.14.58.22s.4.16.58.25a2.29,2.29,0,0,1,.31.16c.2.09.39.2.59.31s.46.28.7.44.45.31.67.48.44.37.67.58a7.27,7.27,0,0,1,.57.55,6.89,6.89,0,0,1,.57.63l.11.14a9.67,9.67,0,0,1,.9,1.27,6.72,6.72,0,0,1,.4.7,15.07,15.07,0,0,1,.76,1.73,13.43,13.43,0,0,1,.74,5.69A13,13,0,0,1,143,48.59l-22.3,9.53c.46.69.87,1.4,1.27,2.12L117.86,62,99.15,70A11.06,11.06,0,0,1,91.28,70.35Z"/><g class="cls-19"><path class="cls-20" d="M142.05,45.13a13.57,13.57,0,0,0,2.62-13.55,12.16,12.16,0,0,0-4.91-6.25,10.79,10.79,0,0,1,2.64-.75c.21.07.41.13.61.21s.4.16.58.25a2.29,2.29,0,0,1,.31.16c.2.09.39.2.59.31s.46.28.7.44.45.31.67.48.44.37.67.58a7.27,7.27,0,0,1,.57.55,6.89,6.89,0,0,1,.57.63l.11.14a10.71,10.71,0,0,1,.9,1.27,6.72,6.72,0,0,1,.4.7,15.07,15.07,0,0,1,.76,1.73,13.43,13.43,0,0,1,.74,5.69c0,.36-.08.7-.14,1A64.94,64.94,0,0,0,145.27,45Z"/></g><path class="cls-18" d="M135.87,116.29,86.6,95.83a11.18,11.18,0,0,1-2.82-1.69,13.11,13.11,0,0,1-4.53-7.31h0a13.46,13.46,0,0,1,.38-7.5,11.59,11.59,0,0,1,12.47-8,11.21,11.21,0,0,1,2.73.75l22.94,9.52,3.93,1.64,22.4,9.29a13,13,0,0,1,7.65,10.8,13.35,13.35,0,0,1-.68,5.71,11.91,11.91,0,0,1-7.31,7.52A11,11,0,0,1,135.87,116.29Z"/><path class="cls-6" d="M143.76,116.53a11.18,11.18,0,0,1-2.73-.74L93.68,96.12l-1.92-.79a11.35,11.35,0,0,1-2.82-1.69l0,0a13.5,13.5,0,0,1-4.13-14.8A11.94,11.94,0,0,1,92.1,71.3a11,11,0,0,1,7.9.25l18.78,7.8,4.15,1.72a20.75,20.75,0,0,1-1.23,2.14l22.4,9.29a13,13,0,0,1,7.65,10.8,13.35,13.35,0,0,1-.68,5.71A11.91,11.91,0,0,1,143.76,116.53Z"/><path class="cls-6" d="M102.1,97.7c-.87,0-1.74,0-2.6-.12h0a26.65,26.65,0,0,1-9.89-3s0,0,0,0a26.53,26.53,0,0,1-9-7.69v0a26.7,26.7,0,0,1,0-32A26.62,26.62,0,0,1,99.49,44.26h0c.86-.08,1.73-.13,2.6-.13a26.7,26.7,0,0,1,21.12,10.33c.51.64,1,1.31,1.44,2a26.78,26.78,0,0,1,0,28.92c-.44.68-.91,1.36-1.42,2A26.7,26.7,0,0,1,102.1,97.7Z"/><path class="cls-21" d="M146.53,102.61h-.15l-7.08-1a33,33,0,0,1-10.35-5c-8-5.72-14-15-14-25.64,0-17.73,16.57-31.69,31.58-31.69s22.76,14,22.76,31.69S161.53,102.61,146.53,102.61Z"/><g class="cls-19"><path class="cls-20" d="M143.71,116.54a11.23,11.23,0,0,1-2.65-.72,12.19,12.19,0,0,0,4.85-6.31,13.29,13.29,0,0,0,.68-5.7,13.43,13.43,0,0,0-3.25-7.59,19.81,19.81,0,0,0,2.89-.09h.14a64.84,64.84,0,0,0,5.23,6.13,8.68,8.68,0,0,1,.15,1,13.29,13.29,0,0,1-.68,5.7,14.2,14.2,0,0,1-.74,1.74,6.68,6.68,0,0,1-.39.7,13.71,13.71,0,0,1-.88,1.28l-.12.14a6.8,6.8,0,0,1-.56.63,7.39,7.39,0,0,1-.56.56c-.24.21-.45.41-.67.59s-.44.34-.66.48a6.86,6.86,0,0,1-.7.45c-.19.11-.39.23-.58.32a2.39,2.39,0,0,1-.32.16,4.94,4.94,0,0,1-.57.26Z"/></g><path class="cls-22" d="M204.64,134.54c-1.27,0-2.54,0-3.79-.09-35.21-1.88-63.25-29.65-63.25-63.53a60.58,60.58,0,0,1,6.7-27.7,62.48,62.48,0,0,1,6.85-10.6A68.13,68.13,0,0,1,200.83,7.4q1.88-.09,3.81-.09a11,11,0,0,1,0,21.93c-25,0-45.27,18.7-45.27,41.68s20.3,41.69,45.27,41.69a11,11,0,0,1,0,21.93Z"/><g class="cls-23"><path class="cls-9" d="M204.64,134.54c-37,0-67-28.54-67-63.62a60.58,60.58,0,0,1,6.7-27.7,62.48,62.48,0,0,1,6.85-10.6A68.23,68.23,0,0,1,204.64,7.31,10,10,0,0,1,206,7.4a68.13,68.13,0,0,0-49.68,25.22,62.48,62.48,0,0,0-6.85,10.6,60.58,60.58,0,0,0-6.7,27.7c0,33.88,28,61.65,63.25,63.53A10.54,10.54,0,0,1,204.64,134.54Z"/></g><path class="cls-9" d="M177.27,93.82a22.9,22.9,0,1,1,0-45.8,20.53,20.53,0,0,1,2.84.19,22.89,22.89,0,0,1,0,45.42A20.53,20.53,0,0,1,177.27,93.82Z"/><path class="cls-24" d="M182.36,93.09a22.21,22.21,0,0,1-2.84-.18c11.29-1.34,20.07-10.66,20.07-22s-8.78-20.66-20.07-22a22.21,22.21,0,0,1,2.84-.18c12.65,0,22.9,9.93,22.9,22.17S195,93.09,182.36,93.09Z"/><ellipse class="cls-25" cx="180.11" cy="70.92" rx="20.07" ry="22.71"/><path class="cls-26" d="M146.53,102.61l-43.66-6.3c-8.46-1.4-14.58-7.93-14.58-15.54V61.07c0-7.62,6.12-14.15,14.58-15.54l40.46-5.85,3.2-.45Z"/><g class="cls-23"><path class="cls-9" d="M146.53,102.62h-.15l-7.08-1-36.43-5.25c-8.46-1.39-14.58-7.92-14.58-15.53V77.26c0,7.61,6.12,14.15,14.58,15.54L129,96.56l17.58,2.54Z"/></g><rect class="cls-27" x="6.29" y="33.62" width="74.6" height="74.6" transform="translate(114.52 27.33) rotate(90)"/><path class="cls-28" d="M39.74,50.6V47.75c0-.66.76-.84,1.31-.29l5.49,5.47a1.14,1.14,0,0,0,.5.3l2.45.7-.07-9.35a1.21,1.21,0,0,0-.85-1L46.44,43a.61.61,0,0,0-.84.59l0,3.94-6.78-6.7a1.15,1.15,0,0,0-.48-.29L36,39.84l0,9.7a1.18,1.18,0,0,0,.82,1.05l2.08.59A.6.6,0,0,0,39.74,50.6Z"/><path class="cls-28" d="M46.66,64.87l0-2.54-1-.3a2.89,2.89,0,0,0,1.29-2.77c0-2.78-2.5-5.76-5.66-6.67s-5.54.66-5.53,3.39A5.24,5.24,0,0,0,37,59.48l-1-.29v2.5a.94.94,0,0,0,.65.84L46,65.33A.48.48,0,0,0,46.66,64.87ZM41.3,60.75a3.47,3.47,0,0,1-2.59-3.27c0-1.44,1-2.2,2.57-1.74A3.46,3.46,0,0,1,43.88,59C43.89,60.46,42.89,61.22,41.3,60.75Z"/><path class="cls-28" d="M47,74.39a5.5,5.5,0,0,0-1.34-3.61l1,.32,0-2.55a1,1,0,0,0-.67-.87L32.5,63.59a.46.46,0,0,0-.64.45v1.85a1,1,0,0,0,.64.85l3.19,1c.49.15.81.77.58,1.12a3.55,3.55,0,0,0-.51,2c0,2.78,2.44,5.85,5.62,6.85S47.05,77.21,47,74.39Zm-5.67.14a3.59,3.59,0,0,1-2.61-3.35c0-1.46,1-2.22,2.59-1.73A3.58,3.58,0,0,1,44,72.8C44,74.28,43,75,41.36,74.53Z"/><path class="cls-28" d="M38.8,84.52c0-1.48,1-2.23,2.6-1.71A3.69,3.69,0,0,1,44,86.23c0,1.17-.61,1.89-1.65,1.89l.47.49-.44.53-.62.72-.32.37-.65.74a6.44,6.44,0,0,0,.61.24c3.22,1.07,5.71-.46,5.69-3.32a5.67,5.67,0,0,0-1.35-3.67l1,.33,0-2.58a1,1,0,0,0-.68-.89L32.51,76.74a.46.46,0,0,0-.65.45v1.87a1,1,0,0,0,.65.87l3.21,1c.49.16.81.79.58,1.15a3.56,3.56,0,0,0-.52,2.06,7.49,7.49,0,0,0,2.78,5.36L41.42,88A3.68,3.68,0,0,1,38.8,84.52Z"/><path class="cls-28" d="M42.46,96.29c-.36-.56-.72-1.12-1.1-1.67-.68-1-1.4-2-2.14-2.9a1.7,1.7,0,0,1-.1-.14l1-1,1-1c.34-.34.68-.66,1-1l0,0-6.21,2.9A49.64,49.64,0,0,1,46.66,105a.08.08,0,0,0,0-.07c-.15-.42-.29-.85-.45-1.27A36.62,36.62,0,0,0,44,98.94C43.54,98,43,97.15,42.46,96.29Z"/><path class="cls-28" d="M43.84,101.68c-.26-.39-.52-.78-.8-1.17a9.85,9.85,0,0,1-3.8.33A10.26,10.26,0,0,1,33.5,83a1.79,1.79,0,0,1-1.07-.79A12.64,12.64,0,0,0,31,83.81c-.09.14-.17.29-.26.42a11.44,11.44,0,0,0-1.9,5,11.85,11.85,0,0,0,1.28,6.92c.1.16.21.31.31.48A11.4,11.4,0,0,0,42.74,102,8.48,8.48,0,0,0,43.84,101.68Z"/><path class="cls-28" d="M35.06,83.13l-.66,0a9.6,9.6,0,0,0,4.87,17.15,9.36,9.36,0,0,0,3.39-.26l-.29-.39a8.16,8.16,0,0,1-2.76.18,8.7,8.7,0,0,1-4-1.25,9,9,0,0,1-2.25-1.85,9.23,9.23,0,0,1,1.67-13.53Z"/><path class="cls-28" d="M46.32,97.54c-.18.15-.36.3-.55.43a10,10,0,0,1-1,.65l0,0L45,99a9.53,9.53,0,0,0,4.82-7.21,10,10,0,0,0-.51-4.38,7.08,7.08,0,0,1-.28.77,8.37,8.37,0,0,1,.3,1.57,13.91,13.91,0,0,1,0,1.58,12.46,12.46,0,0,1-.39,2.29A9.3,9.3,0,0,1,46.32,97.54Z"/><rect class="cls-28" x="39.13" y="98.53" width="1.2" height="0.4" transform="translate(-61.6 131.27) rotate(-85.89)"/><rect class="cls-28" x="47.76" y="90.55" width="0.4" height="1.2" transform="translate(-46.4 132.45) rotate(-85.89)"/><rect class="cls-28" x="32.3" y="89.44" width="0.4" height="1.2" transform="translate(-59.64 116) rotate(-85.89)"/><path class="cls-28" d="M47.86,88.06l.7-1.4,0,0,.53-.87a3.88,3.88,0,0,1,.49.77A10.51,10.51,0,0,1,50.39,92a10.22,10.22,0,0,1-5.12,7.55c.22.42.42.82.61,1.22q.46-.25.9-.54h0a11.78,11.78,0,0,0,1.92-1.67h0a11.77,11.77,0,0,0,2.95-5.82h0a12.26,12.26,0,0,0,.18-2.45h0a11.59,11.59,0,0,0-1.59-5.45l.8-.32h0l1.36-.61v0l-5.24-1.26.67,5.45Z"/><polygon class="cls-28" points="48.6 86.7 48.6 86.7 48.6 86.69 48.59 86.71 48.6 86.7"/><polygon class="cls-28" points="52.4 98.52 51.45 97.76 51.12 98.18 50.31 97.53 49.36 98.72 50.16 99.37 49.82 99.79 50.77 100.55 52.4 98.52"/><path class="cls-28" d="M32.36,41.48h-.2V40H35v.21h-2.6Z"/><path class="cls-28" d="M33.16,42.44a1.05,1.05,0,1,1-1,1.05A1,1,0,0,1,33.16,42.44Zm0,1.9a.85.85,0,1,0-.85-.85A.84.84,0,0,0,33.16,44.34Z"/><path class="cls-28" d="M34.16,47.79h-1.9a.92.92,0,0,1-.94-1,1,1,0,0,1,.48-.94l.1.18a.76.76,0,0,0-.39.76.72.72,0,0,0,.75.8h.36a1,1,0,0,1-.5-.86,1,1,0,0,1,2.08,0,1,1,0,0,1-.51.86h.47Zm-1-.2a.85.85,0,1,0-.85-.85A.84.84,0,0,0,33.16,47.59Z"/><path class="cls-28" d="M34.44,49.19l.5.22v.25l-.5-.27Zm-2.28,0v.2h2v-.2Z"/><path class="cls-28" d="M32.68,52.16c-.32,0-.56-.29-.56-.72a.75.75,0,0,1,.44-.75l.1.17a.57.57,0,0,0-.35.58c0,.28.12.52.37.52.55,0,.24-1.21,1-1.21a.61.61,0,0,1,.57.68.7.7,0,0,1-.4.68l-.09-.17a.52.52,0,0,0,.3-.51c0-.26-.14-.48-.38-.48C33.1,51,33.42,52.16,32.68,52.16Z"/><path class="cls-28" d="M34,53.79h-1.3c-.35,0-.35.19-.32.59h-.18c-.08-.52.05-.8.5-.8H34v-.43h.2v.43h.5l.06.21h-.56v.59H34Z"/><path class="cls-28" d="M34.8,55.6a.16.16,0,1,1,0,.32.16.16,0,1,1,0-.32Zm-.64.06v.2h-2v-.2Z"/><path class="cls-28" d="M33.16,57.14a1,1,0,0,1,1,1,.94.94,0,0,1-.51.87l-.1-.17a.73.73,0,0,0,.42-.7.85.85,0,1,0-1.7,0,.82.82,0,0,0,.41.72l-.1.16a1,1,0,0,1-.5-.88A1,1,0,0,1,33.16,57.14Z"/><path class="cls-28" d="M34.16,62.25h-2v-.2h.45a1,1,0,0,1-.49-.86,1,1,0,0,1,2.08,0,1,1,0,0,1-.49.86h.45Zm-1-.2a.85.85,0,1,0-.85-.85A.84.84,0,0,0,33.16,62.05Z"/><path class="cls-28" d="M136.11,61l0-1.59c0-.37.43-.53.75-.26l3.36,2.76a.64.64,0,0,0,.31.15l1.59.27L142,56.69a.62.62,0,0,0-.57-.55L140.08,56a.45.45,0,0,0-.52.44l0,2.31-4.07-3.21a.5.5,0,0,0-.28-.12l-1.32-.11.11,5.3a.57.57,0,0,0,.46.52l1.15.2A.37.37,0,0,0,136.11,61Z"/><path class="cls-28" d="M140.32,68.75l0-1.44-.62-.15a1.67,1.67,0,0,0,.79-1.62A4.08,4.08,0,0,0,137,62c-1.78-.33-3.07.65-3,2.11a2.65,2.65,0,0,0,.72,1.82l-.53-.13,0,1.33a.5.5,0,0,0,.36.43L139.91,69C140.14,69.08,140.32,69,140.32,68.75Zm-3.24-2.23a1.85,1.85,0,0,1-1.49-1.71c0-.79.53-1.25,1.44-1.06a1.83,1.83,0,0,1,1.56,1.73C138.6,66.3,138,66.75,137.08,66.52Z"/><path class="cls-28" d="M140.58,74.13a3,3,0,0,0-.84-2l.63.19,0-1.43a.6.6,0,0,0-.42-.5l-7.57-2.18a.23.23,0,0,0-.32.24l0,.94a.48.48,0,0,0,.33.43l1.66.52c.25.08.43.41.31.59a1.81,1.81,0,0,0-.25,1.06,4.72,4.72,0,0,0,3.13,3.78C139.11,76.42,140.61,75.7,140.58,74.13ZM137.22,74a2.09,2.09,0,0,1-1.49-1.85c0-.78.53-1.17,1.44-.88a2.09,2.09,0,0,1,1.55,1.87C138.73,74,138.15,74.33,137.22,74Z"/><path class="cls-28" d="M135.87,79.11c0-.76.53-1.09,1.43-.71a2.38,2.38,0,0,1,1.54,2,.76.76,0,0,1-1,.86l.27.29-.24.24-.35.32-.18.16-.36.33.35.18c1.85.88,3.33.33,3.31-1.22a3.34,3.34,0,0,0-.83-2.11l.62.26,0-1.41a.66.66,0,0,0-.42-.53l-7.53-3c-.18-.07-.32,0-.32.2l0,.93a.55.55,0,0,0,.33.46l1.65.69c.26.1.43.44.31.61a1.64,1.64,0,0,0-.25,1,4.57,4.57,0,0,0,1.52,2.93l1.56-.58A2.35,2.35,0,0,1,135.87,79.11Z"/><path class="cls-28" d="M138,85.52c-.21-.33-.42-.66-.64-1-.38-.58-.78-1.15-1.2-1.7l-.05-.09.55-.42.56-.43c.18-.14.38-.28.56-.43v0l-3.35.93a35.84,35.84,0,0,1,6.06,8.22s0,0,0,0c-.09-.25-.17-.49-.27-.73a25.3,25.3,0,0,0-1.3-2.74C138.61,86.56,138.31,86,138,85.52Z"/><path class="cls-28" d="M138.8,88.48c-.15-.24-.3-.48-.46-.71a6,6,0,0,1-2.1-.33c-2.87-.91-5.08-3.87-4.74-6.6A4.16,4.16,0,0,1,133.08,78a1.11,1.11,0,0,1-.55-.45,5.22,5.22,0,0,0-.7.71,2.14,2.14,0,0,1-.13.19,4.71,4.71,0,0,0-.84,2.3,6.42,6.42,0,0,0,.68,3.4,2.26,2.26,0,0,1,.16.26,8,8,0,0,0,3,3,7.62,7.62,0,0,0,3.45,1Z"/><path class="cls-28" d="M133.88,78.16l-.34-.06a3.87,3.87,0,0,0-1.77,3.08,6.35,6.35,0,0,0,4.48,6,5.62,5.62,0,0,0,1.87.3c-.06-.08-.11-.16-.17-.23a5.22,5.22,0,0,1-1.52-.26,6.27,6.27,0,0,1-2.11-1.1,6.6,6.6,0,0,1-1.16-1.14,4.94,4.94,0,0,1-1-4.26A3.65,3.65,0,0,1,133.88,78.16Z"/><path class="cls-28" d="M140.24,86.65l-.33.16a5.71,5.71,0,0,1-.58.21v0l.12.22A3.86,3.86,0,0,0,142.37,84a5.06,5.06,0,0,0-.33-2.47,2,2,0,0,1-.17.4,4.81,4.81,0,0,1,.19.9,8.22,8.22,0,0,1,0,.86,5.81,5.81,0,0,1-.25,1.2A3.66,3.66,0,0,1,140.24,86.65Z"/><polygon class="cls-28" points="136.57 86.77 136.61 86.17 136.39 86.11 136.35 86.7 136.57 86.77"/><polygon class="cls-28" points="140.85 83.23 140.84 83.44 141.58 83.61 141.59 83.4 140.85 83.23"/><polygon class="cls-28" points="132.96 81.37 132.36 81.23 132.35 81.43 132.95 81.57 132.96 81.37"/><path class="cls-28" d="M141.14,81.73l.44-.7h0l.33-.43a2.51,2.51,0,0,1,.31.47,5.49,5.49,0,0,1,.51,3.08,4.19,4.19,0,0,1-3.12,3.42c.12.24.25.48.36.72l.53-.16h0a5.13,5.13,0,0,0,1.18-.62h0a4.71,4.71,0,0,0,1.86-2.8h0a5.38,5.38,0,0,0,.12-1.35h0a6.73,6.73,0,0,0-1-3.21l.52-.11h0l.9-.24v0l-3.35-1.1.43,3Z"/><polygon class="cls-28" points="141.6 81.05 141.6 81.05 141.6 81.05 141.59 81.05 141.6 81.05"/><polygon class="cls-28" points="144.06 88.01 143.44 87.46 143.22 87.64 142.7 87.18 142.1 87.69 142.61 88.15 142.4 88.33 143 88.89 144.06 88.01"/><path class="cls-28" d="M132,56.57l-.1,0,0-.82,1.47-.27v.11l-1.36.26Z"/><path class="cls-28" d="M132.46,57a.46.46,0,0,1,.55.47.63.63,0,0,1-.53.65.46.46,0,0,1-.55-.47A.66.66,0,0,1,132.46,57Zm0,1a.5.5,0,0,0,.43-.52.37.37,0,0,0-.45-.38.53.53,0,0,0-.43.52A.37.37,0,0,0,132.48,58Z"/><path class="cls-28" d="M133,59.81l-1,.13a.42.42,0,0,1-.49-.46.56.56,0,0,1,.23-.53l0,.08a.47.47,0,0,0-.19.43c0,.27.16.4.39.37l.19,0a.46.46,0,0,1-.27-.42.63.63,0,0,1,.53-.63.48.48,0,0,1,.55.48.57.57,0,0,1-.26.49l.25,0Zm-.52,0a.51.51,0,0,0,.43-.51.38.38,0,0,0-.45-.39.5.5,0,0,0-.43.51A.39.39,0,0,0,132.52,59.77Z"/><path class="cls-28" d="M133.2,60.54l.27.09v.13l-.27-.11Zm-1.18.15v.1l1-.12v-.1Z"/><path class="cls-28" d="M132.32,62.22c-.16,0-.29-.12-.29-.35a.41.41,0,0,1,.21-.42l.06.08a.34.34,0,0,0-.18.33c0,.15.07.26.2.25.28,0,.11-.65.48-.69.16,0,.3.11.3.33a.39.39,0,0,1-.2.38l-.05-.08a.31.31,0,0,0,.15-.29c0-.14-.07-.25-.2-.23C132.52,61.56,132.7,62.18,132.32,62.22Z"/><path class="cls-28" d="M133,63l-.67.06c-.18,0-.18.12-.15.33h-.1c0-.27,0-.42.25-.44l.67-.06v-.24h.1v.24l.26,0,0,.11-.3,0v.31H133Z"/><path class="cls-28" d="M133.46,63.94a.07.07,0,0,1,.08.08s0,.08-.08.09a.08.08,0,0,1-.08-.08A.08.08,0,0,1,133.46,63.94Zm-.34.06v.1l-1,.07v-.1Z"/><path class="cls-28" d="M132.62,64.81a.5.5,0,0,1,.55.51.49.49,0,0,1-.25.47l0-.08a.42.42,0,0,0,.21-.38.43.43,0,0,0-.45-.42.46.46,0,0,0-.43.47.4.4,0,0,0,.22.36l0,.09a.5.5,0,0,1-.26-.45A.53.53,0,0,1,132.62,64.81Z"/><path class="cls-28" d="M133.2,67.45l-1,0v-.11h.23a.53.53,0,0,1-.26-.44.54.54,0,0,1,.52-.55.52.52,0,0,1,.55.52.51.51,0,0,1-.25.45h.23Zm-.52-.09a.45.45,0,0,0,.43-.45.44.44,0,1,0-.87,0A.42.42,0,0,0,132.68,67.36Z"/></g></g></g></svg>