<svg id="Capa_1" data-name="Capa 1" xmlns="http://www.w3.org/2000/svg" viewBox="0 0 2732 2732"><defs><style>.cls-1{fill:#a8ff12;}.cls-2{fill:#491580;}</style></defs><rect class="cls-1" width="2732" height="2732"/><path class="cls-2" d="M1117.93,1375.38l-32.36.12c-7.61,0-9.57-8.68-3.35-14.93L1144.5,1298a13.29,13.29,0,0,0,3.41-5.65l8-28-106.38.91c-5.19,0-10.56,4.37-12,9.67l-6.59,24.13c-1.43,5.26,1.59,9.49,6.74,9.46l44.78-.3-76.29,77.15a12.75,12.75,0,0,0-3.26,5.51L995.5,1418l110.37-.23c5.13,0,10.49-4.2,12-9.36l6.76-23.69C1126.07,1379.56,1123.09,1375.36,1117.93,1375.38Z"/><path class="cls-2" d="M1280.34,1296.6l-28.86.21-3.4,11.48c-5.23-9.22-15.42-14.77-31.61-14.65-31.58.23-65.56,28.39-75.86,64.36-10.23,35.72,7.52,63,38.61,63a59.76,59.76,0,0,0,39.8-14.62l-3.33,11.21,28.45,0c4.09,0,8.39-3.33,9.62-7.41l31.82-106C1286.83,1299.94,1284.49,1296.57,1280.34,1296.6Zm-46.87,61c-5.36,18.09-20.67,29.42-37.16,29.48s-25.13-11.17-19.89-29.22,20.56-29.55,37.15-29.65S1238.85,1339.43,1233.47,1357.58Z"/><path class="cls-2" d="M1388.72,1292.39a62.28,62.28,0,0,0-41,15.24l3.54-11.53-29,.21c-4.16,0-8.56,3.45-9.83,7.63l-46.59,153.76c-1.23,4,1.08,7.32,5.15,7.32h21a10.81,10.81,0,0,0,9.64-7.34l11.15-36.31c1.7-5.54,8.75-9.22,12.79-6.53,5.62,3.76,13.29,5.85,23.29,5.83,31.64-.06,66.57-27.82,78-64C1438.44,1320.28,1420.86,1292.16,1388.72,1292.39Zm1.58,64.48c-5.7,18.21-21.39,29.62-38.1,29.67s-25.29-11.24-19.71-29.41,21.27-29.75,38.08-29.85S1396,1338.6,1390.3,1356.87Z"/><path class="cls-2" d="M1504,1386c-16.91.06-25.45-11.32-19.54-29.6s22-29.94,39-30c13.34-.08,21.48,6.94,21.49,18.8l5.56-5.36,6.07,5c2.81,2.32,5.54,4.72,8.18,7,1.4,1.23,2.79,2.46,4.2,3.68q4.24,3.67,8.46,7.37c1-2.27,1.86-4.59,2.64-6.93,12.23-36.66-5.16-65-37.71-64.73a64.15,64.15,0,0,0-41.79,15.34l3.75-11.61-29.4.21c-4.21,0-8.72,3.47-10.06,7.69l-49.42,154.74c-1.3,4.07,1,7.37,5.12,7.37h21.31a11.17,11.17,0,0,0,9.88-7.38l11.81-36.54c1.8-5.59,9-9.29,13.05-6.58,5.63,3.78,13.37,5.89,23.5,5.87,21.39,0,44.45-12.52,61-31.64L1543,1356.22C1537,1374.52,1520.94,1386,1504,1386Z"/><path class="cls-2" d="M1638,1344.35c-6.37,4.14-12.75,8.26-19,12.56-11.27,7.75-22.21,15.93-33,24.37-.49.39-1,.71-1.68,1.13l-11.63-11.74c-3.81-3.84-7.61-7.69-11.44-11.51s-7.54-7.72-11.44-11.45l-.29.25c10.94,23.44,21.89,46.88,33,70.69,44.82-49.28,95.19-91,154-122.13a1.27,1.27,0,0,0-.81,0c-4.8,1.68-9.62,3.29-14.38,5.08a418.08,418.08,0,0,0-53.17,24.78C1657.87,1332,1647.79,1338,1638,1344.35Z"/><path class="cls-2" d="M1699.3,1328.64q-6.71,4.44-13.32,9.12a111,111,0,0,1,3.73,43.22c-5.59,62.74-64.76,113.27-131.68,103.38-29.71-4.39-54.2-18.3-71.5-38a20.39,20.39,0,0,1-9.08,12.16,147,147,0,0,0,18.51,16.75c1.6,1,3.23,1.94,4.79,3a129.13,129.13,0,0,0,57.25,21.53c27.79,3.36,53.88-1.92,78.68-14.48,1.83-1.19,3.6-2.47,5.48-3.57,27.07-15.76,45.2-39.29,56.15-68,8.93-23.4,9.28-48,4.32-72.54A110.64,110.64,0,0,0,1699.3,1328.64Z"/><path class="cls-2" d="M1488.17,1428.61l-.55,7.53a109.6,109.6,0,0,0,77.31,42c56,5,112-36.08,117.91-97.48a108.7,108.7,0,0,0-2.95-38.56c-1.49,1.08-3,2.18-4.44,3.28a95.68,95.68,0,0,1,2.06,31.42c-.85,16.29-6.17,31.1-14.3,45.15a102.62,102.62,0,0,1-21,25.62c-26.34,23.22-62.93,31.31-95.69,21.65C1521,1461.76,1501.24,1448.09,1488.17,1428.61Z"/><path class="cls-2" d="M1652.16,1300.47q2.6,3,5,6.26a122.39,122.39,0,0,1,7.36,11.34l.36-.2,4.25-2.3c-16.72-29.53-46.64-51-82-54.8a112.74,112.74,0,0,0-49.84,5.8,66.06,66.06,0,0,1,8.66,3.09,99.62,99.62,0,0,1,18-3.35c5.91-.54,11.93.08,17.9.17,8.73,1.41,17.93,1.52,26.09,4.49C1625.05,1277.21,1640.27,1286.74,1652.16,1300.47Z"/><rect class="cls-2" x="1663.41" y="1368.69" width="4.55" height="13.64" transform="translate(174.25 2938.24) rotate(-85.89)"/><rect class="cls-2" x="1572.64" y="1279.54" width="13.64" height="4.55" transform="translate(187.66 2765.27) rotate(-85.89)"/><rect class="cls-2" x="1559.99" y="1455.44" width="13.64" height="4.55" transform="translate(0.47 2915.93) rotate(-85.89)"/><path class="cls-2" d="M1544.3,1282.93l-15.89-8c.16-.2.23-.31.3-.38l-10-6.09a51,51,0,0,1,8.77-5.55,119.42,119.42,0,0,1,61.75-8.77c37,4.61,68.34,27.39,86,58.22q7-3.66,13.85-6.9-2.94-5.27-6.2-10.2l0,0c-.15-.21-9.4-13.79-19-21.91h0c-19.23-18.12-41.66-28.41-66.21-33.54l-.19,0c-12.52-2.6-26-2.11-27.89-2v.14a132.87,132.87,0,0,0-62.07,18.08l-3.69-9.09.1-.25c-2.38-5.25-4.69-10.35-7-15.45l-.32.08c-4.77,19.78-9.53,39.56-14.34,59.53l62-7.6C1544.29,1283.13,1544.29,1283,1544.3,1282.93Z"/><path class="cls-2" d="M1528.79,1274.47l0,0-.06,0,.2.12Z"/><polygon class="cls-2" points="1663.36 1231.22 1654.69 1242.03 1659.48 1245.87 1652.12 1255.06 1665.62 1265.89 1672.99 1256.71 1677.78 1260.56 1686.45 1249.76 1663.36 1231.22"/><path class="cls-2" d="M1014.17,1459.31v2.27h-17.4v-31.81h2.41v29.54Z"/><path class="cls-2" d="M1025.12,1450.22a11.93,11.93,0,1,1,12,11.86A11.77,11.77,0,0,1,1025.12,1450.22Zm21.54,0a9.61,9.61,0,1,0-9.59,9.68A9.52,9.52,0,0,0,1046.66,1450.22Z"/><path class="cls-2" d="M1086,1438.86v21.63c0,6.81-5,10.67-11.32,10.67-5.31,0-9.08-2.13-10.72-5.45l2-1.13c1.18,2.4,3.73,4.4,8.72,4.4,5.68,0,9-3.31,9-8.49v-4.18a10.77,10.77,0,0,1-9.76,5.77,11.86,11.86,0,0,1,0-23.72,10.75,10.75,0,0,1,9.76,5.77v-5.27Zm-2.28,11.36a9.63,9.63,0,1,0-9.63,9.68A9.56,9.56,0,0,0,1083.68,1450.22Z"/><path class="cls-2" d="M1102,1435.68l2.5-5.77h2.77l-3,5.77Zm.09,25.9h2.27v-22.72H1102Z"/><path class="cls-2" d="M1135.7,1455.62c0,3.73-3.27,6.46-8.13,6.46-4.54,0-7.54-2.14-8.63-5l2-1.13c.82,2.45,3.27,4,6.68,4,3.18,0,5.86-1.41,5.86-4.28,0-6.17-13.77-2.63-13.77-10.81,0-3.59,3.1-6.45,7.73-6.45,3.68,0,6.5,1.77,7.72,4.54l-1.9,1.09c-1-2.36-3.32-3.45-5.82-3.45-3,0-5.45,1.55-5.45,4.27C1121.94,1450.9,1135.7,1447.31,1135.7,1455.62Z"/><path class="cls-2" d="M1154.24,1441.09v14.76c0,4,2.14,4.09,6.77,3.68v2c-6,.91-9.09-.55-9.09-5.73v-14.76h-5v-2.23h5v-5.68l2.32-.68v6.36H1161v2.23Z"/><path class="cls-2" d="M1174.87,1431.54a1.82,1.82,0,0,1,3.63,0,1.82,1.82,0,1,1-3.63,0Zm.68,7.32h2.27v22.72h-2.27Z"/><path class="cls-2" d="M1192.36,1450.22a11.63,11.63,0,0,1,12-11.86,10.62,10.62,0,0,1,9.9,5.82l-1.86,1.09a8.63,8.63,0,0,0-8-4.73,9.68,9.68,0,0,0,0,19.36,9.08,9.08,0,0,0,8.18-4.73l1.9,1.14a11.16,11.16,0,0,1-10.08,5.77A11.64,11.64,0,0,1,1192.36,1450.22Z"/><path class="cls-2" d="M1250.56,1438.86v22.72h-2.32v-5.14a10.93,10.93,0,0,1-9.77,5.64,11.86,11.86,0,0,1,0-23.72,10.94,10.94,0,0,1,9.77,5.63v-5.13Zm-2.32,11.36a9.61,9.61,0,1,0-9.59,9.68A9.52,9.52,0,0,0,1248.24,1450.22Z"/></svg>